<svg id="Group_57" data-name="Group 57" xmlns="http://www.w3.org/2000/svg" xmlns:xlink="http://www.w3.org/1999/xlink" width="22" height="22" viewBox="0 0 22 22">
  <defs>
    <linearGradient id="linear-gradient" x1="0.093" y1="0.5" x2="1" y2="0.5" gradientUnits="objectBoundingBox">
      <stop offset="0" stop-color="#2d6a4f"/>
      <stop offset="1" stop-color="#95d5b2"/>
    </linearGradient>
  </defs>
  <path id="Path_37" data-name="Path 37" d="M21.807,5a.859.859,0,0,0-.667-.317H5.575L5.511,4.1l0-.019A4.7,4.7,0,0,0,.859,0a.859.859,0,0,0,0,1.719A2.978,2.978,0,0,1,3.8,4.294l1.021,9.384a2.582,2.582,0,0,0-1.516,2.349c0,.007,0,.014,0,.021s0,.014,0,.021a2.581,2.581,0,0,0,2.578,2.578h.35a2.535,2.535,0,1,0,4.8,0h3.707a2.535,2.535,0,1,0,2.4-1.719H5.887a.86.86,0,0,1-.859-.859c0-.007,0-.014,0-.021s0-.014,0-.021a.86.86,0,0,1,.859-.859H16.858a3.935,3.935,0,0,0,3.567-2.4.859.859,0,1,0-1.574-.691,2.247,2.247,0,0,1-1.993,1.377H6.529L5.762,6.4H20.084l-.42,2.016a.859.859,0,1,0,1.683.351l.636-3.051A.859.859,0,0,0,21.807,5ZM17.145,18.648a.816.816,0,1,1-.816.816A.817.817,0,0,1,17.145,18.648Zm-8.508,0a.816.816,0,1,1-.816.816A.817.817,0,0,1,8.637,18.648Z" transform="translate(0)" fill="url(#linear-gradient)"/>
</svg>
