<svg xmlns="http://www.w3.org/2000/svg" width="20" height="19.019" viewBox="0 0 20 19.019">
  <g id="menu_1_" data-name="menu (1)" transform="translate(-10.625 -0.625)">
    <path id="Path_29" data-name="Path 29" d="M276.6,281.2a4.6,4.6,0,1,1,4.6-4.6A4.607,4.607,0,0,1,276.6,281.2Zm0-7.976a3.374,3.374,0,1,0,3.375,3.374A3.378,3.378,0,0,0,276.6,273.227Z" transform="translate(-261.375 -261.559)" fill="#707070"/>
    <path id="Path_33" data-name="Path 33" d="M276.6,281.2a4.6,4.6,0,1,1,4.6-4.6A4.607,4.607,0,0,1,276.6,281.2Zm0-7.976a3.374,3.374,0,1,0,3.375,3.374A3.378,3.378,0,0,0,276.6,273.227Z" transform="translate(-250.578 -261.559)" fill="#707070"/>
    <path id="Path_31" data-name="Path 31" d="M276.6,281.2a4.6,4.6,0,1,1,4.6-4.6A4.607,4.607,0,0,1,276.6,281.2Zm0-7.976a3.374,3.374,0,1,0,3.375,3.374A3.378,3.378,0,0,0,276.6,273.227Z" transform="translate(-261.375 -271.375)" fill="#707070"/>
    <path id="Path_32" data-name="Path 32" d="M276.6,281.2a4.6,4.6,0,1,1,4.6-4.6A4.607,4.607,0,0,1,276.6,281.2Zm0-7.976a3.374,3.374,0,1,0,3.375,3.374A3.378,3.378,0,0,0,276.6,273.227Z" transform="translate(-250.578 -271.375)" fill="#707070"/>
  </g>
</svg>
