<svg xmlns="http://www.w3.org/2000/svg" xmlns:xlink="http://www.w3.org/1999/xlink" width="18" height="22.911" viewBox="0 0 18 22.911">
  <defs>
    <linearGradient id="linear-gradient" y1="0.5" x2="1" y2="0.5" gradientUnits="objectBoundingBox">
      <stop offset="0" stop-color="#2d6a4f"/>
      <stop offset="1" stop-color="#95d5b2"/>
    </linearGradient>
  </defs>
  <g id="clipboard" transform="translate(-47.037 0)">
    <g id="Group_118" data-name="Group 118" transform="translate(47.037 0)">
      <g id="Group_117" data-name="Group 117" transform="translate(0 0)">
        <path id="Path_50" data-name="Path 50" d="M62.746,3H60.673V2.075c0-.3-.327-.436-.627-.436H58.437A2.44,2.44,0,0,0,56.01,0a2.482,2.482,0,0,0-2.427,1.636H52c-.3,0-.6.136-.6.436V3H49.328a2.318,2.318,0,0,0-2.291,2.209V20.838a2.194,2.194,0,0,0,2.291,2.073H62.746a2.194,2.194,0,0,0,2.291-2.073V5.211A2.318,2.318,0,0,0,62.746,3ZM52.492,2.729h1.5a.6.6,0,0,0,.518-.491,1.582,1.582,0,0,1,1.5-1.227,1.554,1.554,0,0,1,1.473,1.227.6.6,0,0,0,.545.491h1.555V4.911H52.492ZM63.946,20.838a1.106,1.106,0,0,1-1.2.982H49.328a1.106,1.106,0,0,1-1.2-.982V5.211a1.227,1.227,0,0,1,1.2-1.118H51.4V5.484A.573.573,0,0,0,52,6h8.045a.6.6,0,0,0,.627-.518V4.093h2.073a1.227,1.227,0,0,1,1.2,1.118V20.838Z" transform="translate(-47.037 0)" fill="url(#linear-gradient)"/>
        <path id="Path_51" data-name="Path 51" d="M103.548,230.481a.545.545,0,0,0-.764-.027l-1.745,1.664-.736-.764a.545.545,0,0,0-.764-.027.573.573,0,0,0,0,.791l1.118,1.145a.491.491,0,0,0,.382.164.545.545,0,0,0,.382-.164l2.127-2.018a.518.518,0,0,0,.031-.732C103.57,230.5,103.559,230.491,103.548,230.481Z" transform="translate(-96.648 -218.289)" fill="url(#linear-gradient)"/>
        <path id="Path_52" data-name="Path 52" d="M205.366,256.034h-6.273a.545.545,0,1,0,0,1.091h6.273a.545.545,0,0,0,0-1.091Z" transform="translate(-190.639 -242.669)" fill="url(#linear-gradient)"/>
        <path id="Path_53" data-name="Path 53" d="M103.548,146.889a.545.545,0,0,0-.764-.027l-1.745,1.664-.736-.764a.545.545,0,0,0-.764-.027.573.573,0,0,0,0,.791l1.118,1.145a.491.491,0,0,0,.382.164.545.545,0,0,0,.382-.164l2.127-2.018a.518.518,0,0,0,.031-.732C103.57,146.91,103.559,146.9,103.548,146.889Z" transform="translate(-96.648 -139.06)" fill="url(#linear-gradient)"/>
        <path id="Path_54" data-name="Path 54" d="M205.366,172.442h-6.273a.545.545,0,0,0,0,1.091h6.273a.545.545,0,0,0,0-1.091Z" transform="translate(-190.639 -163.44)" fill="url(#linear-gradient)"/>
        <path id="Path_55" data-name="Path 55" d="M103.548,314.073a.546.546,0,0,0-.764-.027l-1.745,1.664-.736-.764a.546.546,0,0,0-.764-.027.573.573,0,0,0,0,.791l1.118,1.145a.491.491,0,0,0,.382.164.546.546,0,0,0,.382-.164l2.127-2.018a.518.518,0,0,0,.031-.732Z" transform="translate(-96.648 -297.517)" fill="url(#linear-gradient)"/>
        <path id="Path_56" data-name="Path 56" d="M205.366,339.626h-6.273a.545.545,0,0,0,0,1.091h6.273a.545.545,0,0,0,0-1.091Z" transform="translate(-190.639 -321.897)" fill="url(#linear-gradient)"/>
      </g>
    </g>
  </g>
</svg>
