<svg xmlns="http://www.w3.org/2000/svg" xmlns:xlink="http://www.w3.org/1999/xlink" width="18" height="18.001" viewBox="0 0 18 18.001">
  <defs>
    <linearGradient id="linear-gradient" y1="0.5" x2="0.913" y2="0.5" gradientUnits="objectBoundingBox">
      <stop offset="0" stop-color="#2d6a4f"/>
      <stop offset="1" stop-color="#95d5b2"/>
    </linearGradient>
  </defs>
  <path id="exit" d="M13.192,13.782v1.406A2.816,2.816,0,0,1,10.379,18H3.313A2.816,2.816,0,0,1,.5,15.188V2.813A2.816,2.816,0,0,1,3.313,0h7.067a2.816,2.816,0,0,1,2.813,2.813V4.219a.7.7,0,1,1-1.406,0V2.813a1.408,1.408,0,0,0-1.406-1.406H3.313A1.408,1.408,0,0,0,1.906,2.813V15.188a1.408,1.408,0,0,0,1.406,1.406h7.067a1.408,1.408,0,0,0,1.406-1.406V13.782a.7.7,0,1,1,1.406,0Zm4.794-5.989L16.411,6.218a.7.7,0,1,0-.994.994l1.12,1.12H8.094a.7.7,0,1,0,0,1.406h8.443l-1.12,1.12a.7.7,0,1,0,.994.994l1.575-1.575a1.76,1.76,0,0,0,0-2.486Zm0,0" transform="translate(-0.5)" fill="url(#linear-gradient)"/>
</svg>
