<svg xmlns="http://www.w3.org/2000/svg" width="20" height="16.797" viewBox="0 0 20 16.797">
  <g id="love" transform="translate(0 -40.992)">
    <g id="Group_52" data-name="Group 52" transform="translate(0 40.993)">
      <path id="Path_34" data-name="Path 34" d="M18.343,42.545a5.791,5.791,0,0,0-7.891,0l-.452.43-.452-.429a5.792,5.792,0,0,0-7.891,0,5.175,5.175,0,0,0,0,7.59L9.517,57.6a.7.7,0,0,0,.966,0l7.86-7.462a5.175,5.175,0,0,0,0-7.59Zm-.967,6.573L10,56.12l-7.376-7a3.772,3.772,0,0,1,0-5.556,4.371,4.371,0,0,1,5.957,0l.936.889a.7.7,0,0,0,.967,0l.936-.889a4.371,4.371,0,0,1,5.957,0,3.772,3.772,0,0,1,0,5.556Z" transform="translate(0 -40.993)" fill="#707070"/>
    </g>
  </g>
</svg>
