<svg xmlns="http://www.w3.org/2000/svg" width="20" height="20.002" viewBox="0 0 20 20.002">
  <path id="home_1_" data-name="home (1)" d="M19.963,8.7l0,0L11.8.539a1.841,1.841,0,0,0-2.6,0L1.043,8.694,1.035,8.7A1.841,1.841,0,0,0,2.26,11.839l.057,0h.325v6A2.158,2.158,0,0,0,4.8,20H7.989a.586.586,0,0,0,.586-.586V14.708a.984.984,0,0,1,.983-.983h1.883a.984.984,0,0,1,.983.983v4.708a.586.586,0,0,0,.586.586H16.2a2.158,2.158,0,0,0,2.155-2.155v-6h.3a1.842,1.842,0,0,0,1.3-3.143Zm-.83,1.774a.665.665,0,0,1-.473.2h-.888a.586.586,0,0,0-.586.586v6.59a.984.984,0,0,1-.983.983H13.6V14.708a2.158,2.158,0,0,0-2.155-2.155H9.559A2.158,2.158,0,0,0,7.4,14.708v4.122H4.8a.984.984,0,0,1-.983-.983v-6.59a.586.586,0,0,0-.586-.586h-.9a.669.669,0,0,1-.461-1.142h0l8.159-8.159a.669.669,0,0,1,.946,0L19.13,9.524l0,0a.671.671,0,0,1,0,.946Zm0,0" transform="translate(-0.5 0.001)" fill="#707070"/>
</svg>
