<svg xmlns="http://www.w3.org/2000/svg" width="20" height="22.755" viewBox="0 0 20 22.755">
  <g id="notification" transform="translate(-30.999)">
    <path id="Path_21" data-name="Path 21" d="M47.888,11.683V9.556A6.9,6.9,0,0,0,43,2.963V2a2,2,0,0,0-4,0v.963A6.9,6.9,0,0,0,34.11,9.556v2.127a10.468,10.468,0,0,1-2.926,7.278.667.667,0,0,0,.481,1.128h6.067a3.334,3.334,0,0,0,6.533,0h6.067a.667.667,0,0,0,.481-1.128A10.468,10.468,0,0,1,47.888,11.683ZM40.332,2a.667.667,0,1,1,1.333,0v.7c-.219-.021-.442-.032-.667-.032s-.447.011-.667.032ZM41,21.422a2,2,0,0,1-1.885-1.333h3.771A2,2,0,0,1,41,21.422Zm-7.9-2.667a11.787,11.787,0,0,0,2.341-7.073V9.556a5.556,5.556,0,1,1,11.111,0v2.127A11.787,11.787,0,0,0,48.9,18.755Z" fill="#1b4332"/>
    <path id="Path_22" data-name="Path 22" d="M392.226,58.773a.667.667,0,0,0,1.333,0,9.935,9.935,0,0,0-2.929-7.071.667.667,0,1,0-.943.943A8.61,8.61,0,0,1,392.226,58.773Z" transform="translate(-342.561 -49.218)" fill="#1b4332"/>
    <path id="Path_23" data-name="Path 23" d="M31.667,59.44a.667.667,0,0,0,.667-.667,8.61,8.61,0,0,1,2.538-6.128.667.667,0,0,0-.943-.943A9.934,9.934,0,0,0,31,58.774.667.667,0,0,0,31.667,59.44Z" transform="translate(-0.001 -49.218)" fill="#1b4332"/>
  </g>
</svg>
