<svg id="Group_103" data-name="Group 103" xmlns="http://www.w3.org/2000/svg" xmlns:xlink="http://www.w3.org/1999/xlink" width="18" height="18" viewBox="0 0 18 18">
  <defs>
    <linearGradient id="linear-gradient" x1="0.5" x2="0.5" y2="1" gradientUnits="objectBoundingBox">
      <stop offset="0" stop-color="#2d6a4f"/>
      <stop offset="1" stop-color="#95d5b2"/>
    </linearGradient>
  </defs>
  <path id="Path_45" data-name="Path 45" d="M17.512,3.248,14.752.488a1.663,1.663,0,0,0-2.353,0L1.565,11.322a.593.593,0,0,0-.157.278L.018,17.264a.594.594,0,0,0,.718.718L6.4,16.592a.593.593,0,0,0,.278-.157L17.512,5.6A1.663,1.663,0,0,0,17.512,3.248ZM1.4,16.6l.057-.231.174.174Zm1.579-.388L1.792,15.016l.518-2.11L5.093,15.69Zm3.275-1.032L2.825,11.742l8.867-8.867,3.434,3.434ZM16.672,4.761l-.686.686L12.553,2.013l.686-.686a.476.476,0,0,1,.674,0l2.76,2.76A.476.476,0,0,1,16.672,4.761Z" transform="translate(0 0)" fill="url(#linear-gradient)"/>
</svg>
