<svg xmlns="http://www.w3.org/2000/svg" width="18" height="20.48" viewBox="0 0 18 20.48">
  <g id="user" transform="translate(-31)">
    <g id="Group_54" data-name="Group 54" transform="translate(34.6)">
      <g id="Group_53" data-name="Group 53" transform="translate(0)">
        <path id="Path_35" data-name="Path 35" d="M126.4,0a5.4,5.4,0,1,0,5.4,5.4A5.406,5.406,0,0,0,126.4,0Zm0,9.6a4.2,4.2,0,1,1,4.2-4.2A4.2,4.2,0,0,1,126.4,9.6Z" transform="translate(-121)" fill="#707070"/>
      </g>
    </g>
    <g id="Group_56" data-name="Group 56" transform="translate(31 12)">
      <g id="Group_55" data-name="Group 55" transform="translate(0)">
        <path id="Path_36" data-name="Path 36" d="M46.719,302.328A7.7,7.7,0,0,0,41.2,300H38.8a7.7,7.7,0,0,0-5.519,2.328A7.87,7.87,0,0,0,31,307.88a.6.6,0,0,0,.6.6H48.4a.6.6,0,0,0,.6-.6A7.87,7.87,0,0,0,46.719,302.328ZM32.226,307.28A6.641,6.641,0,0,1,38.8,301.2h2.4a6.641,6.641,0,0,1,6.574,6.08Z" transform="translate(-31 -300)" fill="#707070"/>
      </g>
    </g>
  </g>
</svg>
