<svg xmlns="http://www.w3.org/2000/svg" width="25" height="25" viewBox="0 0 25 25">
  <g id="shopping-cart" transform="translate(1 3)">
    <g id="Group_57" data-name="Group 57" transform="translate(-1 -3)">
      <path id="Path_37" data-name="Path 37" d="M24.781,5.683a.977.977,0,0,0-.758-.361H6.335l-.072-.666,0-.021A5.343,5.343,0,0,0,.977,0a.977.977,0,0,0,0,1.953A3.385,3.385,0,0,1,4.322,4.879L5.483,15.543A2.934,2.934,0,0,0,3.76,18.213c0,.008,0,.016,0,.024s0,.016,0,.024a2.933,2.933,0,0,0,2.93,2.93h.4a2.881,2.881,0,1,0,5.455,0h4.213a2.881,2.881,0,1,0,2.728-1.953H6.689a.978.978,0,0,1-.977-.977c0-.008,0-.016,0-.024s0-.016,0-.024a.978.978,0,0,1,.977-.977H19.157A4.472,4.472,0,0,0,23.21,14.5a.977.977,0,1,0-1.788-.785,2.553,2.553,0,0,1-2.265,1.564H7.419L6.547,7.275H22.822l-.478,2.291a.977.977,0,1,0,1.912.4L24.979,6.5A.976.976,0,0,0,24.781,5.683Zm-5.3,15.509a.928.928,0,1,1-.928.928A.929.929,0,0,1,19.482,21.191Zm-9.668,0a.928.928,0,1,1-.928.928A.929.929,0,0,1,9.814,21.191Z" transform="translate(0)" fill="#fff"/>
    </g>
  </g>
</svg>
